# File created by Blade
# Date/Time:  Tue Apr 07 21:33:03 2015
# Frame Rate: 120.000 fps
#------------------------------------------------------
:FULLY-SPECIFIED
:DEGREES
1065
root -1.849215 33.855676 -2.173762 17.351922 1.053688 -2.840934
Spine -16.021544 -6.524193 1.477333
Head 7.201382 -4.082616 -0.776175
LeftShoulder -21.694907 39.253079 19.642487
LeftArm 58.827741 -56.852987 -55.217547
LeftForeArm 8.391910 -0.000000 -1.930140
LeftHand 7.040858 -0.000000 10.585979
LeftHandThumb1 -26.253704 0.000000 33.147579
RightShoulder -7.295130 2.111901 -29.118759
RightArm 12.876973 13.766175 45.536969
RightForeArm -11.873535 -0.000000 2.273249
RightHand 6.070569 -0.000000 -3.404373
RightHandThumb1 -24.326973 -0.000000 -32.862282
LeftUpLeg -9.103948 -11.694051 4.854867
LeftLeg 1.629234 -0.000000 -0.000000
LeftFoot -0.846263 17.869950 -22.270646
LeftToeBase -17.241131 -0.000000 0.000000
RightUpLeg -10.906400 -0.260724 5.311914
RightLeg 4.783426 -0.000000 -0.000000
RightFoot 0.294415 -11.430986 2.371436
RightToeBase -9.434977 -0.000000 0.000000
1066
root -1.808893 33.788462 -2.215898 17.400587 0.870309 -2.571114
Spine -16.098865 -6.354311 1.155934
Head 7.082278 -4.095522 -0.849770
LeftShoulder -21.870074 39.087389 19.597242
LeftArm 58.427597 -57.327985 -54.851385
LeftForeArm 8.580659 -0.000000 -1.954441
LeftHand 6.767034 -0.000000 10.708318
LeftHandThumb1 -26.253704 0.000000 33.147579
RightShoulder -7.358660 2.182301 -29.166847
RightArm 12.918073 13.915714 45.097128
RightForeArm -11.959637 -0.000000 2.235066
RightHand 6.060159 -0.000000 -3.404196
RightHandThumb1 -24.326973 -0.000000 -32.862282
LeftUpLeg -8.654789 -12.912789 4.745629
LeftLeg 0.559102 -0.000000 -0.000000
LeftFoot -1.371255 18.674640 -22.405384
LeftToeBase -16.459233 -0.000000 0.000000
RightUpLeg -10.781433 -0.309016 4.891479
RightLeg 4.204295 -0.000000 -0.000000
RightFoot -0.040781 -11.034690 2.680308
RightToeBase -9.530851 -0.000000 0.000000
1067
root -1.771509 33.720916 -2.261593 17.441745 0.620562 -2.317681
Spine -16.151993 -6.134698 0.823273
Head 6.909234 -4.087073 -0.899677
LeftShoulder -22.134954 39.021050 19.533103
LeftArm 58.352817 -57.855881 -54.842938
LeftForeArm 8.716033 -0.000000 -2.002042
LeftHand 6.636025 -0.000000 10.469772
LeftHandThumb1 -26.253704 0.000000 33.147579
RightShoulder -7.421661 2.331666 -29.239290
RightArm 12.896123 14.004775 44.694635
RightForeArm -12.034064 -0.000000 2.258280
RightHand 5.765454 -0.000000 -3.303009
RightHandThumb1 -24.326973 -0.000000 -32.862282
LeftUpLeg -8.197569 -13.904912 4.602660
LeftLeg -0.513959 -0.000000 0.000000
LeftFoot -1.853670 19.364015 -22.779812
LeftToeBase -16.029040 -0.000000 0.000000
RightUpLeg -10.727240 -0.205132 4.454319
RightLeg 3.828615 -0.000000 -0.000000
RightFoot -0.490160 -10.657766 2.912020
RightToeBase -9.525167 -0.000000 0.000000
1068
root -1.736951 33.654418 -2.308764 17.464761 0.348688 -2.063671
Spine -16.161873 -5.895178 0.477860
Head 6.689709 -3.970680 -0.970822
LeftShoulder -22.415819 38.977017 19.452721
LeftArm 58.120637 -58.308548 -54.654150
LeftForeArm 8.870558 -0.000000 -2.028858
LeftHand 6.394272 -0.000000 10.285214
LeftHandThumb1 -26.253704 0.000000 33.147579
RightShoulder -7.472986 2.581547 -29.351892
RightArm 12.738402 14.127228 44.349649
RightForeArm -12.177544 -0.000000 2.330889
RightHand 5.664186 -0.000000 -3.482529
RightHandThumb1 -24.326973 -0.000000 -32.862282
LeftUpLeg -7.732637 -14.677811 4.418034
LeftLeg -1.559420 -0.000000 0.000000
LeftFoot -2.342663 19.947817 -23.047141
LeftToeBase -15.218854 -0.000000 0.000000
RightUpLeg -10.700400 -0.027439 4.000497
RightLeg 3.615107 -0.000000 -0.000000
RightFoot -1.094393 -10.326290 3.280490
RightToeBase -9.309019 -0.000000 0.000000
1069
root -1.703614 33.587792 -2.356959 17.466681 0.057023 -1.847120
Spine -16.160365 -5.633422 0.179874
Head 6.536428 -4.013063 -1.035091
LeftShoulder -22.574627 38.906805 19.426490
LeftArm 57.770803 -58.780286 -54.417943
LeftForeArm 8.909003 0.000000 -2.082745
LeftHand 6.116810 -0.000000 10.387652
LeftHandThumb1 -26.253704 0.000000 33.147579
RightShoulder -7.549366 2.587208 -29.434307
RightArm 12.848371 14.379917 44.054426
RightForeArm -12.356748 0.000000 2.312016
RightHand 5.554112 -0.000000 -3.445247
RightHandThumb1 -24.326973 -0.000000 -32.862282
LeftUpLeg -7.166471 -15.644655 4.274656
LeftLeg -2.779044 -0.000000 0.000000
LeftFoot -2.869209 20.904742 -23.104246
LeftToeBase -14.092809 -0.000000 0.000000
RightUpLeg -10.743798 0.089490 3.591925
RightLeg 3.659687 -0.000000 -0.000000
RightFoot -1.848722 -9.883562 3.708743
RightToeBase -9.168199 -0.000000 0.000000
1070
root -1.672635 33.521507 -2.404635 17.472698 -0.254788 -1.679818
Spine -16.139524 -5.325919 -0.064799
Head 6.310712 -4.025335 -1.128789
LeftShoulder -22.865377 38.868126 19.310566
LeftArm 57.794097 -59.285747 -54.522376
LeftForeArm 9.318997 -0.000000 -2.061154
LeftHand 5.635586 0.000000 10.040682
LeftHandThumb1 -26.253704 0.000000 33.147579
RightShoulder -7.631732 2.756938 -29.582573
RightArm 12.777404 14.475255 43.751781
RightForeArm -12.441032 0.000000 2.350531
RightHand 5.600807 -0.000000 -3.803250
RightHandThumb1 -24.326973 -0.000000 -32.862282
LeftUpLeg -6.701926 -16.159256 4.105259
LeftLeg -3.744052 -0.000000 0.000000
LeftFoot -3.400363 21.420579 -23.151072
LeftToeBase -13.142019 -0.000000 0.000000
RightUpLeg -10.759900 0.364300 3.209320
RightLeg 3.664616 -0.000000 -0.000000
RightFoot -2.594905 -9.562599 3.879641
RightToeBase -8.848729 -0.000000 0.000000
1071
root -1.649799 33.455223 -2.453466 17.420614 -0.548527 -1.596590
Spine -16.048662 -4.995507 -0.232632
Head 6.094109 -4.073729 -1.262060
LeftShoulder -23.020456 38.782883 19.320195
LeftArm 57.451350 -59.673085 -54.326528
LeftForeArm 9.342931 0.000000 -2.142540
LeftHand 5.561632 -0.000000 9.905589
LeftHandThumb1 -26.253704 0.000000 33.147579
RightShoulder -7.730577 2.858728 -29.752236
RightArm 12.774640 14.680146 43.527714
RightForeArm -12.697918 0.000000 2.354307
RightHand 5.435989 -0.000000 -3.474941
RightHandThumb1 -24.326973 -0.000000 -32.862282
LeftUpLeg -6.099551 -16.988837 4.054231
LeftLeg -4.905039 -0.000000 0.000000
LeftFoot -3.919859 22.338250 -23.222194
LeftToeBase -12.200361 -0.000000 0.000000
RightUpLeg -10.720124 0.660247 2.934887
RightLeg 3.663292 -0.000000 -0.000000
RightFoot -3.352286 -9.318652 4.224134
RightToeBase -8.440491 -0.000000 0.000000
1072
root -1.625568 33.388284 -2.501841 17.378991 -0.797775 -1.569985
Spine -15.977277 -4.714527 -0.285549
Head 5.903394 -4.024613 -1.422993
LeftShoulder -23.197940 38.749934 19.277394
LeftArm 57.138976 -60.054548 -54.136438
LeftForeArm 9.368195 -0.000000 -2.278584
LeftHand 5.408697 -0.000000 9.786355
LeftHandThumb1 -26.253704 0.000000 33.147579
RightShoulder -7.774673 3.074672 -29.987059
RightArm 12.674913 14.721836 43.271767
RightForeArm -12.706080 -0.000000 2.337035
RightHand 5.291805 -0.000000 -3.207033
RightHandThumb1 -24.326973 -0.000000 -32.862282
LeftUpLeg -5.865546 -16.659628 3.893075
LeftLeg -5.231201 -0.000000 0.000000
LeftFoot -4.270499 21.932459 -22.829318
LeftToeBase -11.667043 -0.000000 0.000000
RightUpLeg -10.666303 0.853725 2.741962
RightLeg 3.596725 -0.000000 -0.000000
RightFoot -4.102941 -9.013858 4.614284
RightToeBase -7.957808 -0.000000 0.000000
1073
root -1.603206 33.322173 -2.549922 17.300356 -1.025629 -1.575104
Spine -15.854293 -4.480495 -0.282190
Head 5.687698 -3.830998 -1.660610
LeftShoulder -23.398778 38.659509 19.224751
LeftArm 56.780967 -60.444660 -53.922855
LeftForeArm 9.639059 -0.000000 -2.384964
LeftHand 5.332204 -0.000000 9.172449
LeftHandThumb1 -26.253704 0.000000 33.147579
RightShoulder -7.765618 3.153434 -30.158560
RightArm 12.676793 14.907203 42.968181
RightForeArm -12.904493 -0.000000 2.283368
RightHand 5.156223 -0.000000 -3.194133
RightHandThumb1 -24.326973 -0.000000 -32.862282
LeftUpLeg -5.619313 -16.343641 3.738248
LeftLeg -5.533735 -0.000000 0.000000
LeftFoot -4.739172 21.697830 -22.537698
LeftToeBase -11.119609 -0.000000 0.000000
RightUpLeg -10.580696 0.972271 2.622289
RightLeg 3.517189 -0.000000 -0.000000
RightFoot -4.829242 -8.761220 4.955202
RightToeBase -7.471866 -0.000000 0.000000
1074
root -1.585440 33.257403 -2.597977 17.254580 -1.174671 -1.626514
Spine -15.776484 -4.272401 -0.206688
Head 5.510699 -3.755374 -1.882007
LeftShoulder -23.542695 38.557424 19.190447
LeftArm 56.281721 -60.744240 -53.517877
LeftForeArm 9.615030 0.000000 -2.524467
LeftHand 5.297240 0.000000 8.860716
LeftHandThumb1 -26.253704 0.000000 33.147579
RightShoulder -7.780939 3.361509 -30.405584
RightArm 12.582251 15.040448 42.713349
RightForeArm -12.988412 -0.000000 2.189647
RightHand 4.901898 -0.000000 -2.938181
RightHandThumb1 -24.326973 -0.000000 -32.862282
LeftUpLeg -5.428711 -16.387111 3.694285
LeftLeg -5.875411 -0.000000 0.000000
LeftFoot -5.363673 21.900467 -22.378730
LeftToeBase -10.526113 -0.000000 0.000000
RightUpLeg -10.504027 0.967636 2.595794
RightLeg 3.378286 -0.000000 -0.000000
RightFoot -5.517020 -8.483611 5.314981
RightToeBase -6.867063 -0.000000 0.000000
